<?xml version="1.0" encoding="utf-8" standalone="no"?>
<!DOCTYPE svg PUBLIC "-//W3C//DTD SVG 1.1//EN"
  "http://www.w3.org/Graphics/SVG/1.1/DTD/svg11.dtd">
<svg xmlns:xlink="http://www.w3.org/1999/xlink" width="648pt" height="432pt" viewBox="0 0 648 432" xmlns="http://www.w3.org/2000/svg" version="1.1">
 <metadata>
  <rdf:RDF xmlns:dc="http://purl.org/dc/elements/1.1/" xmlns:cc="http://creativecommons.org/ns#" xmlns:rdf="http://www.w3.org/1999/02/22-rdf-syntax-ns#">
   <cc:Work>
    <dc:type rdf:resource="http://purl.org/dc/dcmitype/StillImage"/>
    <dc:date>2025-04-28T22:10:37.381062</dc:date>
    <dc:format>image/svg+xml</dc:format>
    <dc:creator>
     <cc:Agent>
      <dc:title>Matplotlib v3.8.0, https://matplotlib.org/</dc:title>
     </cc:Agent>
    </dc:creator>
   </cc:Work>
  </rdf:RDF>
 </metadata>
 <defs>
  <style type="text/css">*{stroke-linejoin: round; stroke-linecap: butt}</style>
 </defs>
 <g id="figure_1">
  <g id="patch_1">
   <path d="M 0 432 
L 648 432 
L 648 0 
L 0 0 
z
" style="fill: #ffffff"/>
  </g>
  <g id="axes_1">
   <g id="patch_2">
    <path d="M 68.957054 376.648 
L 637.2 376.648 
L 637.2 16.416 
L 68.957054 16.416 
z
" style="fill: #ffffff"/>
   </g>
   <g id="matplotlib.axis_1">
    <g id="xtick_1">
     <g id="line2d_1">
      <defs>
       <path id="m3fec4ca547" d="M 0 0 
L 0 3.5 
" style="stroke: #000000; stroke-width: 0.8"/>
      </defs>
      <g>
       <use xlink:href="#m3fec4ca547" x="68.957054" y="376.648" style="stroke: #000000; stroke-width: 0.8"/>
      </g>
     </g>
     <g id="text_1">
      <!-- $\mathdefault{10^{0}}$ -->
      <g transform="translate(60.157054 391.246437) scale(0.1 -0.1)">
       <defs>
        <path id="DejaVuSans-31" d="M 794 531 
L 1825 531 
L 1825 4091 
L 703 3866 
L 703 4441 
L 1819 4666 
L 2450 4666 
L 2450 531 
L 3481 531 
L 3481 0 
L 794 0 
L 794 531 
z
" transform="scale(0.015625)"/>
        <path id="DejaVuSans-30" d="M 2034 4250 
Q 1547 4250 1301 3770 
Q 1056 3291 1056 2328 
Q 1056 1369 1301 889 
Q 1547 409 2034 409 
Q 2525 409 2770 889 
Q 3016 1369 3016 2328 
Q 3016 3291 2770 3770 
Q 2525 4250 2034 4250 
z
M 2034 4750 
Q 2819 4750 3233 4129 
Q 3647 3509 3647 2328 
Q 3647 1150 3233 529 
Q 2819 -91 2034 -91 
Q 1250 -91 836 529 
Q 422 1150 422 2328 
Q 422 3509 836 4129 
Q 1250 4750 2034 4750 
z
" transform="scale(0.015625)"/>
       </defs>
       <use xlink:href="#DejaVuSans-31" transform="translate(0 0.765625)"/>
       <use xlink:href="#DejaVuSans-30" transform="translate(63.623047 0.765625)"/>
       <use xlink:href="#DejaVuSans-30" transform="translate(128.203125 39.046875) scale(0.7)"/>
      </g>
     </g>
    </g>
    <g id="xtick_2">
     <g id="line2d_2">
      <g>
       <use xlink:href="#m3fec4ca547" x="476.476898" y="376.648" style="stroke: #000000; stroke-width: 0.8"/>
      </g>
     </g>
     <g id="text_2">
      <!-- $\mathdefault{10^{1}}$ -->
      <g transform="translate(467.676898 391.246437) scale(0.1 -0.1)">
       <use xlink:href="#DejaVuSans-31" transform="translate(0 0.684375)"/>
       <use xlink:href="#DejaVuSans-30" transform="translate(63.623047 0.684375)"/>
       <use xlink:href="#DejaVuSans-31" transform="translate(128.203125 38.965625) scale(0.7)"/>
      </g>
     </g>
    </g>
    <g id="xtick_3">
     <g id="line2d_3">
      <defs>
       <path id="m96c8a2c94a" d="M 0 0 
L 0 2 
" style="stroke: #000000; stroke-width: 0.6"/>
      </defs>
      <g>
       <use xlink:href="#m96c8a2c94a" x="191.632751" y="376.648" style="stroke: #000000; stroke-width: 0.6"/>
      </g>
     </g>
    </g>
    <g id="xtick_4">
     <g id="line2d_4">
      <g>
       <use xlink:href="#m96c8a2c94a" x="263.393433" y="376.648" style="stroke: #000000; stroke-width: 0.6"/>
      </g>
     </g>
    </g>
    <g id="xtick_5">
     <g id="line2d_5">
      <g>
       <use xlink:href="#m96c8a2c94a" x="314.308448" y="376.648" style="stroke: #000000; stroke-width: 0.6"/>
      </g>
     </g>
    </g>
    <g id="xtick_6">
     <g id="line2d_6">
      <g>
       <use xlink:href="#m96c8a2c94a" x="353.801201" y="376.648" style="stroke: #000000; stroke-width: 0.6"/>
      </g>
     </g>
    </g>
    <g id="xtick_7">
     <g id="line2d_7">
      <g>
       <use xlink:href="#m96c8a2c94a" x="386.06913" y="376.648" style="stroke: #000000; stroke-width: 0.6"/>
      </g>
     </g>
    </g>
    <g id="xtick_8">
     <g id="line2d_8">
      <g>
       <use xlink:href="#m96c8a2c94a" x="413.351275" y="376.648" style="stroke: #000000; stroke-width: 0.6"/>
      </g>
     </g>
    </g>
    <g id="xtick_9">
     <g id="line2d_9">
      <g>
       <use xlink:href="#m96c8a2c94a" x="436.984144" y="376.648" style="stroke: #000000; stroke-width: 0.6"/>
      </g>
     </g>
    </g>
    <g id="xtick_10">
     <g id="line2d_10">
      <g>
       <use xlink:href="#m96c8a2c94a" x="457.829812" y="376.648" style="stroke: #000000; stroke-width: 0.6"/>
      </g>
     </g>
    </g>
    <g id="xtick_11">
     <g id="line2d_11">
      <g>
       <use xlink:href="#m96c8a2c94a" x="599.152594" y="376.648" style="stroke: #000000; stroke-width: 0.6"/>
      </g>
     </g>
    </g>
    <g id="text_3">
     <!-- $r/a$ -->
     <g transform="translate(339.378527 412.523) scale(0.2 -0.2)">
      <defs>
       <path id="DejaVuSans-Oblique-72" d="M 2853 2969 
Q 2766 3016 2653 3041 
Q 2541 3066 2413 3066 
Q 1953 3066 1609 2717 
Q 1266 2369 1153 1784 
L 800 0 
L 225 0 
L 909 3500 
L 1484 3500 
L 1375 2956 
Q 1603 3259 1920 3421 
Q 2238 3584 2597 3584 
Q 2691 3584 2781 3573 
Q 2872 3563 2963 3538 
L 2853 2969 
z
" transform="scale(0.015625)"/>
       <path id="DejaVuSans-2f" d="M 1625 4666 
L 2156 4666 
L 531 -594 
L 0 -594 
L 1625 4666 
z
" transform="scale(0.015625)"/>
       <path id="DejaVuSans-Oblique-61" d="M 3438 1997 
L 3047 0 
L 2472 0 
L 2578 531 
Q 2325 219 2001 64 
Q 1678 -91 1281 -91 
Q 834 -91 548 182 
Q 263 456 263 884 
Q 263 1497 752 1853 
Q 1241 2209 2100 2209 
L 2900 2209 
L 2931 2363 
Q 2938 2388 2941 2417 
Q 2944 2447 2944 2509 
Q 2944 2788 2717 2942 
Q 2491 3097 2081 3097 
Q 1800 3097 1504 3025 
Q 1209 2953 897 2809 
L 997 3341 
Q 1322 3463 1633 3523 
Q 1944 3584 2234 3584 
Q 2853 3584 3176 3315 
Q 3500 3047 3500 2534 
Q 3500 2431 3484 2292 
Q 3469 2153 3438 1997 
z
M 2816 1759 
L 2241 1759 
Q 1534 1759 1195 1570 
Q 856 1381 856 984 
Q 856 709 1029 553 
Q 1203 397 1509 397 
Q 1978 397 2328 733 
Q 2678 1069 2791 1631 
L 2816 1759 
z
" transform="scale(0.015625)"/>
      </defs>
      <use xlink:href="#DejaVuSans-Oblique-72" transform="translate(0 0.09375)"/>
      <use xlink:href="#DejaVuSans-2f" transform="translate(41.113281 0.09375)"/>
      <use xlink:href="#DejaVuSans-Oblique-61" transform="translate(74.804688 0.09375)"/>
     </g>
    </g>
   </g>
   <g id="matplotlib.axis_2">
    <g id="ytick_1">
     <g id="line2d_12">
      <defs>
       <path id="m40a4400313" d="M 0 0 
L -3.5 0 
" style="stroke: #000000; stroke-width: 0.8"/>
      </defs>
      <g>
       <use xlink:href="#m40a4400313" x="68.957054" y="376.648" style="stroke: #000000; stroke-width: 0.8"/>
      </g>
     </g>
     <g id="text_4">
      <!-- $\mathdefault{10^{-6}}$ -->
      <g transform="translate(38.457054 380.447219) scale(0.1 -0.1)">
       <defs>
        <path id="DejaVuSans-2212" d="M 678 2272 
L 4684 2272 
L 4684 1741 
L 678 1741 
L 678 2272 
z
" transform="scale(0.015625)"/>
        <path id="DejaVuSans-36" d="M 2113 2584 
Q 1688 2584 1439 2293 
Q 1191 2003 1191 1497 
Q 1191 994 1439 701 
Q 1688 409 2113 409 
Q 2538 409 2786 701 
Q 3034 994 3034 1497 
Q 3034 2003 2786 2293 
Q 2538 2584 2113 2584 
z
M 3366 4563 
L 3366 3988 
Q 3128 4100 2886 4159 
Q 2644 4219 2406 4219 
Q 1781 4219 1451 3797 
Q 1122 3375 1075 2522 
Q 1259 2794 1537 2939 
Q 1816 3084 2150 3084 
Q 2853 3084 3261 2657 
Q 3669 2231 3669 1497 
Q 3669 778 3244 343 
Q 2819 -91 2113 -91 
Q 1303 -91 875 529 
Q 447 1150 447 2328 
Q 447 3434 972 4092 
Q 1497 4750 2381 4750 
Q 2619 4750 2861 4703 
Q 3103 4656 3366 4563 
z
" transform="scale(0.015625)"/>
       </defs>
       <use xlink:href="#DejaVuSans-31" transform="translate(0 0.765625)"/>
       <use xlink:href="#DejaVuSans-30" transform="translate(63.623047 0.765625)"/>
       <use xlink:href="#DejaVuSans-2212" transform="translate(128.203125 39.046875) scale(0.7)"/>
       <use xlink:href="#DejaVuSans-36" transform="translate(186.855469 39.046875) scale(0.7)"/>
      </g>
     </g>
    </g>
    <g id="ytick_2">
     <g id="line2d_13">
      <g>
       <use xlink:href="#m40a4400313" x="68.957054" y="316.609333" style="stroke: #000000; stroke-width: 0.8"/>
      </g>
     </g>
     <g id="text_5">
      <!-- $\mathdefault{10^{-5}}$ -->
      <g transform="translate(38.457054 320.408552) scale(0.1 -0.1)">
       <defs>
        <path id="DejaVuSans-35" d="M 691 4666 
L 3169 4666 
L 3169 4134 
L 1269 4134 
L 1269 2991 
Q 1406 3038 1543 3061 
Q 1681 3084 1819 3084 
Q 2600 3084 3056 2656 
Q 3513 2228 3513 1497 
Q 3513 744 3044 326 
Q 2575 -91 1722 -91 
Q 1428 -91 1123 -41 
Q 819 9 494 109 
L 494 744 
Q 775 591 1075 516 
Q 1375 441 1709 441 
Q 2250 441 2565 725 
Q 2881 1009 2881 1497 
Q 2881 1984 2565 2268 
Q 2250 2553 1709 2553 
Q 1456 2553 1204 2497 
Q 953 2441 691 2322 
L 691 4666 
z
" transform="scale(0.015625)"/>
       </defs>
       <use xlink:href="#DejaVuSans-31" transform="translate(0 0.684375)"/>
       <use xlink:href="#DejaVuSans-30" transform="translate(63.623047 0.684375)"/>
       <use xlink:href="#DejaVuSans-2212" transform="translate(128.203125 38.965625) scale(0.7)"/>
       <use xlink:href="#DejaVuSans-35" transform="translate(186.855469 38.965625) scale(0.7)"/>
      </g>
     </g>
    </g>
    <g id="ytick_3">
     <g id="line2d_14">
      <g>
       <use xlink:href="#m40a4400313" x="68.957054" y="256.570667" style="stroke: #000000; stroke-width: 0.8"/>
      </g>
     </g>
     <g id="text_6">
      <!-- $\mathdefault{10^{-4}}$ -->
      <g transform="translate(38.457054 260.369885) scale(0.1 -0.1)">
       <defs>
        <path id="DejaVuSans-34" d="M 2419 4116 
L 825 1625 
L 2419 1625 
L 2419 4116 
z
M 2253 4666 
L 3047 4666 
L 3047 1625 
L 3713 1625 
L 3713 1100 
L 3047 1100 
L 3047 0 
L 2419 0 
L 2419 1100 
L 313 1100 
L 313 1709 
L 2253 4666 
z
" transform="scale(0.015625)"/>
       </defs>
       <use xlink:href="#DejaVuSans-31" transform="translate(0 0.684375)"/>
       <use xlink:href="#DejaVuSans-30" transform="translate(63.623047 0.684375)"/>
       <use xlink:href="#DejaVuSans-2212" transform="translate(128.203125 38.965625) scale(0.7)"/>
       <use xlink:href="#DejaVuSans-34" transform="translate(186.855469 38.965625) scale(0.7)"/>
      </g>
     </g>
    </g>
    <g id="ytick_4">
     <g id="line2d_15">
      <g>
       <use xlink:href="#m40a4400313" x="68.957054" y="196.532" style="stroke: #000000; stroke-width: 0.8"/>
      </g>
     </g>
     <g id="text_7">
      <!-- $\mathdefault{10^{-3}}$ -->
      <g transform="translate(38.457054 200.331219) scale(0.1 -0.1)">
       <defs>
        <path id="DejaVuSans-33" d="M 2597 2516 
Q 3050 2419 3304 2112 
Q 3559 1806 3559 1356 
Q 3559 666 3084 287 
Q 2609 -91 1734 -91 
Q 1441 -91 1130 -33 
Q 819 25 488 141 
L 488 750 
Q 750 597 1062 519 
Q 1375 441 1716 441 
Q 2309 441 2620 675 
Q 2931 909 2931 1356 
Q 2931 1769 2642 2001 
Q 2353 2234 1838 2234 
L 1294 2234 
L 1294 2753 
L 1863 2753 
Q 2328 2753 2575 2939 
Q 2822 3125 2822 3475 
Q 2822 3834 2567 4026 
Q 2313 4219 1838 4219 
Q 1578 4219 1281 4162 
Q 984 4106 628 3988 
L 628 4550 
Q 988 4650 1302 4700 
Q 1616 4750 1894 4750 
Q 2613 4750 3031 4423 
Q 3450 4097 3450 3541 
Q 3450 3153 3228 2886 
Q 3006 2619 2597 2516 
z
" transform="scale(0.015625)"/>
       </defs>
       <use xlink:href="#DejaVuSans-31" transform="translate(0 0.765625)"/>
       <use xlink:href="#DejaVuSans-30" transform="translate(63.623047 0.765625)"/>
       <use xlink:href="#DejaVuSans-2212" transform="translate(128.203125 39.046875) scale(0.7)"/>
       <use xlink:href="#DejaVuSans-33" transform="translate(186.855469 39.046875) scale(0.7)"/>
      </g>
     </g>
    </g>
    <g id="ytick_5">
     <g id="line2d_16">
      <g>
       <use xlink:href="#m40a4400313" x="68.957054" y="136.493333" style="stroke: #000000; stroke-width: 0.8"/>
      </g>
     </g>
     <g id="text_8">
      <!-- $\mathdefault{10^{-2}}$ -->
      <g transform="translate(38.457054 140.292552) scale(0.1 -0.1)">
       <defs>
        <path id="DejaVuSans-32" d="M 1228 531 
L 3431 531 
L 3431 0 
L 469 0 
L 469 531 
Q 828 903 1448 1529 
Q 2069 2156 2228 2338 
Q 2531 2678 2651 2914 
Q 2772 3150 2772 3378 
Q 2772 3750 2511 3984 
Q 2250 4219 1831 4219 
Q 1534 4219 1204 4116 
Q 875 4013 500 3803 
L 500 4441 
Q 881 4594 1212 4672 
Q 1544 4750 1819 4750 
Q 2544 4750 2975 4387 
Q 3406 4025 3406 3419 
Q 3406 3131 3298 2873 
Q 3191 2616 2906 2266 
Q 2828 2175 2409 1742 
Q 1991 1309 1228 531 
z
" transform="scale(0.015625)"/>
       </defs>
       <use xlink:href="#DejaVuSans-31" transform="translate(0 0.765625)"/>
       <use xlink:href="#DejaVuSans-30" transform="translate(63.623047 0.765625)"/>
       <use xlink:href="#DejaVuSans-2212" transform="translate(128.203125 39.046875) scale(0.7)"/>
       <use xlink:href="#DejaVuSans-32" transform="translate(186.855469 39.046875) scale(0.7)"/>
      </g>
     </g>
    </g>
    <g id="ytick_6">
     <g id="line2d_17">
      <g>
       <use xlink:href="#m40a4400313" x="68.957054" y="76.454667" style="stroke: #000000; stroke-width: 0.8"/>
      </g>
     </g>
     <g id="text_9">
      <!-- $\mathdefault{10^{-1}}$ -->
      <g transform="translate(38.457054 80.253885) scale(0.1 -0.1)">
       <use xlink:href="#DejaVuSans-31" transform="translate(0 0.684375)"/>
       <use xlink:href="#DejaVuSans-30" transform="translate(63.623047 0.684375)"/>
       <use xlink:href="#DejaVuSans-2212" transform="translate(128.203125 38.965625) scale(0.7)"/>
       <use xlink:href="#DejaVuSans-31" transform="translate(186.855469 38.965625) scale(0.7)"/>
      </g>
     </g>
    </g>
    <g id="ytick_7">
     <g id="line2d_18">
      <g>
       <use xlink:href="#m40a4400313" x="68.957054" y="16.416" style="stroke: #000000; stroke-width: 0.8"/>
      </g>
     </g>
     <g id="text_10">
      <!-- $\mathdefault{10^{0}}$ -->
      <g transform="translate(44.357054 20.215219) scale(0.1 -0.1)">
       <use xlink:href="#DejaVuSans-31" transform="translate(0 0.765625)"/>
       <use xlink:href="#DejaVuSans-30" transform="translate(63.623047 0.765625)"/>
       <use xlink:href="#DejaVuSans-30" transform="translate(128.203125 39.046875) scale(0.7)"/>
      </g>
     </g>
    </g>
    <g id="ytick_8">
     <g id="line2d_19">
      <defs>
       <path id="m435b0a7d96" d="M 0 0 
L -2 0 
" style="stroke: #000000; stroke-width: 0.6"/>
      </defs>
      <g>
       <use xlink:href="#m435b0a7d96" x="68.957054" y="358.57456" style="stroke: #000000; stroke-width: 0.6"/>
      </g>
     </g>
    </g>
    <g id="ytick_9">
     <g id="line2d_20">
      <g>
       <use xlink:href="#m435b0a7d96" x="68.957054" y="348.002276" style="stroke: #000000; stroke-width: 0.6"/>
      </g>
     </g>
    </g>
    <g id="ytick_10">
     <g id="line2d_21">
      <g>
       <use xlink:href="#m435b0a7d96" x="68.957054" y="340.501121" style="stroke: #000000; stroke-width: 0.6"/>
      </g>
     </g>
    </g>
    <g id="ytick_11">
     <g id="line2d_22">
      <g>
       <use xlink:href="#m435b0a7d96" x="68.957054" y="334.682773" style="stroke: #000000; stroke-width: 0.6"/>
      </g>
     </g>
    </g>
    <g id="ytick_12">
     <g id="line2d_23">
      <g>
       <use xlink:href="#m435b0a7d96" x="68.957054" y="329.928836" style="stroke: #000000; stroke-width: 0.6"/>
      </g>
     </g>
    </g>
    <g id="ytick_13">
     <g id="line2d_24">
      <g>
       <use xlink:href="#m435b0a7d96" x="68.957054" y="325.90944" style="stroke: #000000; stroke-width: 0.6"/>
      </g>
     </g>
    </g>
    <g id="ytick_14">
     <g id="line2d_25">
      <g>
       <use xlink:href="#m435b0a7d96" x="68.957054" y="322.427681" style="stroke: #000000; stroke-width: 0.6"/>
      </g>
     </g>
    </g>
    <g id="ytick_15">
     <g id="line2d_26">
      <g>
       <use xlink:href="#m435b0a7d96" x="68.957054" y="319.356552" style="stroke: #000000; stroke-width: 0.6"/>
      </g>
     </g>
    </g>
    <g id="ytick_16">
     <g id="line2d_27">
      <g>
       <use xlink:href="#m435b0a7d96" x="68.957054" y="298.535894" style="stroke: #000000; stroke-width: 0.6"/>
      </g>
     </g>
    </g>
    <g id="ytick_17">
     <g id="line2d_28">
      <g>
       <use xlink:href="#m435b0a7d96" x="68.957054" y="287.963609" style="stroke: #000000; stroke-width: 0.6"/>
      </g>
     </g>
    </g>
    <g id="ytick_18">
     <g id="line2d_29">
      <g>
       <use xlink:href="#m435b0a7d96" x="68.957054" y="280.462454" style="stroke: #000000; stroke-width: 0.6"/>
      </g>
     </g>
    </g>
    <g id="ytick_19">
     <g id="line2d_30">
      <g>
       <use xlink:href="#m435b0a7d96" x="68.957054" y="274.644106" style="stroke: #000000; stroke-width: 0.6"/>
      </g>
     </g>
    </g>
    <g id="ytick_20">
     <g id="line2d_31">
      <g>
       <use xlink:href="#m435b0a7d96" x="68.957054" y="269.89017" style="stroke: #000000; stroke-width: 0.6"/>
      </g>
     </g>
    </g>
    <g id="ytick_21">
     <g id="line2d_32">
      <g>
       <use xlink:href="#m435b0a7d96" x="68.957054" y="265.870774" style="stroke: #000000; stroke-width: 0.6"/>
      </g>
     </g>
    </g>
    <g id="ytick_22">
     <g id="line2d_33">
      <g>
       <use xlink:href="#m435b0a7d96" x="68.957054" y="262.389015" style="stroke: #000000; stroke-width: 0.6"/>
      </g>
     </g>
    </g>
    <g id="ytick_23">
     <g id="line2d_34">
      <g>
       <use xlink:href="#m435b0a7d96" x="68.957054" y="259.317885" style="stroke: #000000; stroke-width: 0.6"/>
      </g>
     </g>
    </g>
    <g id="ytick_24">
     <g id="line2d_35">
      <g>
       <use xlink:href="#m435b0a7d96" x="68.957054" y="238.497227" style="stroke: #000000; stroke-width: 0.6"/>
      </g>
     </g>
    </g>
    <g id="ytick_25">
     <g id="line2d_36">
      <g>
       <use xlink:href="#m435b0a7d96" x="68.957054" y="227.924943" style="stroke: #000000; stroke-width: 0.6"/>
      </g>
     </g>
    </g>
    <g id="ytick_26">
     <g id="line2d_37">
      <g>
       <use xlink:href="#m435b0a7d96" x="68.957054" y="220.423788" style="stroke: #000000; stroke-width: 0.6"/>
      </g>
     </g>
    </g>
    <g id="ytick_27">
     <g id="line2d_38">
      <g>
       <use xlink:href="#m435b0a7d96" x="68.957054" y="214.60544" style="stroke: #000000; stroke-width: 0.6"/>
      </g>
     </g>
    </g>
    <g id="ytick_28">
     <g id="line2d_39">
      <g>
       <use xlink:href="#m435b0a7d96" x="68.957054" y="209.851503" style="stroke: #000000; stroke-width: 0.6"/>
      </g>
     </g>
    </g>
    <g id="ytick_29">
     <g id="line2d_40">
      <g>
       <use xlink:href="#m435b0a7d96" x="68.957054" y="205.832107" style="stroke: #000000; stroke-width: 0.6"/>
      </g>
     </g>
    </g>
    <g id="ytick_30">
     <g id="line2d_41">
      <g>
       <use xlink:href="#m435b0a7d96" x="68.957054" y="202.350348" style="stroke: #000000; stroke-width: 0.6"/>
      </g>
     </g>
    </g>
    <g id="ytick_31">
     <g id="line2d_42">
      <g>
       <use xlink:href="#m435b0a7d96" x="68.957054" y="199.279219" style="stroke: #000000; stroke-width: 0.6"/>
      </g>
     </g>
    </g>
    <g id="ytick_32">
     <g id="line2d_43">
      <g>
       <use xlink:href="#m435b0a7d96" x="68.957054" y="178.45856" style="stroke: #000000; stroke-width: 0.6"/>
      </g>
     </g>
    </g>
    <g id="ytick_33">
     <g id="line2d_44">
      <g>
       <use xlink:href="#m435b0a7d96" x="68.957054" y="167.886276" style="stroke: #000000; stroke-width: 0.6"/>
      </g>
     </g>
    </g>
    <g id="ytick_34">
     <g id="line2d_45">
      <g>
       <use xlink:href="#m435b0a7d96" x="68.957054" y="160.385121" style="stroke: #000000; stroke-width: 0.6"/>
      </g>
     </g>
    </g>
    <g id="ytick_35">
     <g id="line2d_46">
      <g>
       <use xlink:href="#m435b0a7d96" x="68.957054" y="154.566773" style="stroke: #000000; stroke-width: 0.6"/>
      </g>
     </g>
    </g>
    <g id="ytick_36">
     <g id="line2d_47">
      <g>
       <use xlink:href="#m435b0a7d96" x="68.957054" y="149.812836" style="stroke: #000000; stroke-width: 0.6"/>
      </g>
     </g>
    </g>
    <g id="ytick_37">
     <g id="line2d_48">
      <g>
       <use xlink:href="#m435b0a7d96" x="68.957054" y="145.79344" style="stroke: #000000; stroke-width: 0.6"/>
      </g>
     </g>
    </g>
    <g id="ytick_38">
     <g id="line2d_49">
      <g>
       <use xlink:href="#m435b0a7d96" x="68.957054" y="142.311681" style="stroke: #000000; stroke-width: 0.6"/>
      </g>
     </g>
    </g>
    <g id="ytick_39">
     <g id="line2d_50">
      <g>
       <use xlink:href="#m435b0a7d96" x="68.957054" y="139.240552" style="stroke: #000000; stroke-width: 0.6"/>
      </g>
     </g>
    </g>
    <g id="ytick_40">
     <g id="line2d_51">
      <g>
       <use xlink:href="#m435b0a7d96" x="68.957054" y="118.419894" style="stroke: #000000; stroke-width: 0.6"/>
      </g>
     </g>
    </g>
    <g id="ytick_41">
     <g id="line2d_52">
      <g>
       <use xlink:href="#m435b0a7d96" x="68.957054" y="107.847609" style="stroke: #000000; stroke-width: 0.6"/>
      </g>
     </g>
    </g>
    <g id="ytick_42">
     <g id="line2d_53">
      <g>
       <use xlink:href="#m435b0a7d96" x="68.957054" y="100.346454" style="stroke: #000000; stroke-width: 0.6"/>
      </g>
     </g>
    </g>
    <g id="ytick_43">
     <g id="line2d_54">
      <g>
       <use xlink:href="#m435b0a7d96" x="68.957054" y="94.528106" style="stroke: #000000; stroke-width: 0.6"/>
      </g>
     </g>
    </g>
    <g id="ytick_44">
     <g id="line2d_55">
      <g>
       <use xlink:href="#m435b0a7d96" x="68.957054" y="89.77417" style="stroke: #000000; stroke-width: 0.6"/>
      </g>
     </g>
    </g>
    <g id="ytick_45">
     <g id="line2d_56">
      <g>
       <use xlink:href="#m435b0a7d96" x="68.957054" y="85.754774" style="stroke: #000000; stroke-width: 0.6"/>
      </g>
     </g>
    </g>
    <g id="ytick_46">
     <g id="line2d_57">
      <g>
       <use xlink:href="#m435b0a7d96" x="68.957054" y="82.273015" style="stroke: #000000; stroke-width: 0.6"/>
      </g>
     </g>
    </g>
    <g id="ytick_47">
     <g id="line2d_58">
      <g>
       <use xlink:href="#m435b0a7d96" x="68.957054" y="79.201885" style="stroke: #000000; stroke-width: 0.6"/>
      </g>
     </g>
    </g>
    <g id="ytick_48">
     <g id="line2d_59">
      <g>
       <use xlink:href="#m435b0a7d96" x="68.957054" y="58.381227" style="stroke: #000000; stroke-width: 0.6"/>
      </g>
     </g>
    </g>
    <g id="ytick_49">
     <g id="line2d_60">
      <g>
       <use xlink:href="#m435b0a7d96" x="68.957054" y="47.808943" style="stroke: #000000; stroke-width: 0.6"/>
      </g>
     </g>
    </g>
    <g id="ytick_50">
     <g id="line2d_61">
      <g>
       <use xlink:href="#m435b0a7d96" x="68.957054" y="40.307788" style="stroke: #000000; stroke-width: 0.6"/>
      </g>
     </g>
    </g>
    <g id="ytick_51">
     <g id="line2d_62">
      <g>
       <use xlink:href="#m435b0a7d96" x="68.957054" y="34.48944" style="stroke: #000000; stroke-width: 0.6"/>
      </g>
     </g>
    </g>
    <g id="ytick_52">
     <g id="line2d_63">
      <g>
       <use xlink:href="#m435b0a7d96" x="68.957054" y="29.735503" style="stroke: #000000; stroke-width: 0.6"/>
      </g>
     </g>
    </g>
    <g id="ytick_53">
     <g id="line2d_64">
      <g>
       <use xlink:href="#m435b0a7d96" x="68.957054" y="25.716107" style="stroke: #000000; stroke-width: 0.6"/>
      </g>
     </g>
    </g>
    <g id="ytick_54">
     <g id="line2d_65">
      <g>
       <use xlink:href="#m435b0a7d96" x="68.957054" y="22.234348" style="stroke: #000000; stroke-width: 0.6"/>
      </g>
     </g>
    </g>
    <g id="ytick_55">
     <g id="line2d_66">
      <g>
       <use xlink:href="#m435b0a7d96" x="68.957054" y="19.163219" style="stroke: #000000; stroke-width: 0.6"/>
      </g>
     </g>
    </g>
    <g id="text_11">
     <!-- $|C_{\vec{G}}(r)|$ -->
     <g transform="translate(29.657054 227.932) rotate(-90) scale(0.2 -0.2)">
      <defs>
       <path id="DejaVuSans-7c" d="M 1344 4891 
L 1344 -1509 
L 813 -1509 
L 813 4891 
L 1344 4891 
z
" transform="scale(0.015625)"/>
       <path id="DejaVuSans-Oblique-43" d="M 4447 4306 
L 4319 3641 
Q 4019 3944 3683 4091 
Q 3347 4238 2956 4238 
Q 2422 4238 2017 3981 
Q 1613 3725 1319 3200 
Q 1131 2863 1032 2486 
Q 934 2109 934 1728 
Q 934 1091 1264 756 
Q 1594 422 2222 422 
Q 2656 422 3056 561 
Q 3456 700 3834 978 
L 3688 231 
Q 3316 72 2936 -9 
Q 2556 -91 2175 -91 
Q 1278 -91 773 396 
Q 269 884 269 1753 
Q 269 2309 461 2846 
Q 653 3384 1013 3828 
Q 1394 4300 1883 4525 
Q 2372 4750 3022 4750 
Q 3422 4750 3780 4639 
Q 4138 4528 4447 4306 
z
" transform="scale(0.015625)"/>
       <path id="DejaVuSans-20d7" d="M -3009 4066 
L -3009 4378 
L -694 4378 
L -1106 4863 
L -713 4863 
L -166 4222 
L -713 3581 
L -1106 3581 
L -694 4066 
L -3009 4066 
z
" transform="scale(0.015625)"/>
       <path id="DejaVuSans-Oblique-47" d="M 3494 697 
L 3738 1919 
L 2700 1919 
L 2797 2438 
L 4453 2438 
L 4050 384 
Q 3634 156 3143 32 
Q 2653 -91 2156 -91 
Q 1278 -91 783 396 
Q 288 884 288 1753 
Q 288 2475 589 3126 
Q 891 3778 1422 4213 
Q 1756 4484 2153 4617 
Q 2550 4750 3034 4750 
Q 3472 4750 3873 4639 
Q 4275 4528 4641 4306 
L 4513 3634 
Q 4231 3928 3853 4083 
Q 3475 4238 3047 4238 
Q 2550 4238 2172 4048 
Q 1794 3859 1497 3463 
Q 1244 3125 1098 2667 
Q 953 2209 953 1734 
Q 953 1081 1287 751 
Q 1622 422 2284 422 
Q 2616 422 2925 492 
Q 3234 563 3494 697 
z
" transform="scale(0.015625)"/>
       <path id="DejaVuSans-28" d="M 1984 4856 
Q 1566 4138 1362 3434 
Q 1159 2731 1159 2009 
Q 1159 1288 1364 580 
Q 1569 -128 1984 -844 
L 1484 -844 
Q 1016 -109 783 600 
Q 550 1309 550 2009 
Q 550 2706 781 3412 
Q 1013 4119 1484 4856 
L 1984 4856 
z
" transform="scale(0.015625)"/>
       <path id="DejaVuSans-29" d="M 513 4856 
L 1013 4856 
Q 1481 4119 1714 3412 
Q 1947 2706 1947 2009 
Q 1947 1309 1714 600 
Q 1481 -109 1013 -844 
L 513 -844 
Q 928 -128 1133 580 
Q 1338 1288 1338 2009 
Q 1338 2731 1133 3434 
Q 928 4138 513 4856 
z
" transform="scale(0.015625)"/>
      </defs>
      <use xlink:href="#DejaVuSans-7c" transform="translate(0 0.578125)"/>
      <use xlink:href="#DejaVuSans-Oblique-43" transform="translate(33.691406 0.578125)"/>
      <use xlink:href="#DejaVuSans-20d7" transform="translate(154.998291 5.703125) scale(0.7)"/>
      <use xlink:href="#DejaVuSans-Oblique-47" transform="translate(103.515625 -15.828125) scale(0.7)"/>
      <use xlink:href="#DejaVuSans-28" transform="translate(160.493164 0.578125)"/>
      <use xlink:href="#DejaVuSans-Oblique-72" transform="translate(199.506836 0.578125)"/>
      <use xlink:href="#DejaVuSans-29" transform="translate(240.620117 0.578125)"/>
      <use xlink:href="#DejaVuSans-7c" transform="translate(279.633789 0.578125)"/>
     </g>
    </g>
   </g>
   <g id="line2d_67">
    <path d="M 11.961232 433 
L 12.04202 49.693481 
L 23.845301 111.988369 
L 34.91038 138.98566 
L 45.324185 124.976957 
L 55.159138 143.139276 
L 64.476217 141.785073 
L 73.327242 138.689906 
L 81.756626 118.663012 
L 89.802722 109.573525 
L 97.498874 105.001222 
L 104.874259 104.912462 
L 111.954548 101.218836 
L 118.76245 89.429324 
L 125.318148 106.662631 
L 131.639663 93.823423 
L 137.743152 94.826342 
L 143.643152 92.417512 
L 149.352796 100.037844 
L 154.883984 111.471077 
L 160.247535 150.219756 
L 165.453311 113.381407 
L 170.51033 96.849185 
L 175.426857 89.610498 
L 180.21049 85.092944 
L 184.868222 87.820434 
L 189.406512 98.995991 
L 193.831333 143.51501 
L 198.148221 154.171975 
L 202.362316 104.523238 
L 206.478399 96.771095 
L 210.500927 98.152765 
L 214.434059 100.316229 
L 218.28168 99.898441 
L 222.047431 111.053592 
L 225.734723 122.372998 
L 229.346759 134.164805 
L 232.88655 151.384922 
L 236.356928 140.01714 
L 239.760564 132.059307 
L 243.099977 143.66105 
L 246.377545 141.790422 
L 249.595517 149.790722 
L 252.756023 131.423707 
L 255.861078 108.502888 
L 258.912596 101.619934 
L 261.91239 99.403716 
L 264.862185 102.479103 
L 267.763621 113.444298 
L 273.42758 190.829824 
L 276.193006 174.615847 
L 278.915884 146.805058 
L 284.239101 131.258487 
L 286.841848 162.704865 
L 289.406873 151.982254 
L 291.935254 119.851017 
L 294.428022 104.033666 
L 296.886167 104.357871 
L 299.310638 105.64975 
L 301.702345 110.130321 
L 304.062162 158.774928 
L 306.390927 136.629703 
L 308.689448 109.062558 
L 310.9585 106.634919 
L 313.198829 106.097628 
L 315.411153 102.05025 
L 317.596163 110.568029 
L 319.754527 113.17191 
L 323.993858 131.704045 
L 326.076043 205.678304 
L 328.134015 127.256902 
L 330.168332 123.689396 
L 332.179531 119.830578 
L 334.168132 114.414928 
L 336.134637 130.817304 
L 338.079531 218.727058 
L 340.003285 134.437937 
L 341.906353 111.461728 
L 343.789175 108.828631 
L 345.652178 112.341604 
L 347.495774 123.798917 
L 349.320364 173.676228 
L 351.126335 142.080786 
L 352.914063 126.956321 
L 354.683914 128.347735 
L 356.436241 128.528676 
L 358.171389 127.609152 
L 359.88969 135.640638 
L 361.591469 129.271121 
L 363.27704 118.984856 
L 364.946709 112.921308 
L 366.600773 112.329634 
L 368.239522 117.641018 
L 369.863237 127.763382 
L 371.47219 170.035152 
L 373.066647 131.17424 
L 374.646869 116.104621 
L 376.213106 107.932851 
L 377.765604 106.071209 
L 379.304601 111.075577 
L 380.830332 114.716324 
L 382.343021 119.765492 
L 383.842891 126.976467 
L 385.330158 136.642153 
L 386.80503 186.15668 
L 388.267712 137.820268 
L 389.718406 120.579665 
L 391.157305 112.489954 
L 392.5846 110.103399 
L 394.000477 119.173011 
L 395.405116 129.632259 
L 396.798695 197.885034 
L 398.181386 130.613614 
L 399.553359 121.074718 
L 400.914779 109.969837 
L 402.265805 117.216204 
L 403.606596 128.539647 
L 404.937307 164.571301 
L 406.258086 211.021731 
L 407.569082 151.449004 
L 408.870438 125.70363 
L 411.44479 122.235838 
L 412.718059 116.592074 
L 413.982233 115.348209 
L 415.237442 112.495133 
L 416.48381 119.466619 
L 417.721463 121.95223 
L 418.950521 157.272125 
L 420.171102 157.546105 
L 421.383324 124.199708 
L 422.587299 116.138385 
L 423.783138 112.348561 
L 426.150848 117.556348 
L 427.322929 124.710196 
L 428.487299 126.082198 
L 429.644059 130.172017 
L 430.793307 140.416722 
L 431.935141 157.228541 
L 433.069655 172.004977 
L 434.196943 139.861365 
L 435.317096 127.915367 
L 436.430205 125.351404 
L 437.536356 121.209677 
L 438.635636 130.627968 
L 439.728131 157.638967 
L 440.813924 158.199069 
L 441.893096 130.377622 
L 442.965727 118.874404 
L 444.031896 124.756855 
L 445.091682 129.045855 
L 446.145159 139.753519 
L 447.192402 157.964402 
L 448.233485 205.370723 
L 449.26848 155.266709 
L 450.297458 129.881948 
L 451.320487 122.561796 
L 452.337637 118.110653 
L 453.348975 120.288487 
L 454.354566 116.726376 
L 455.354477 120.38398 
L 456.348769 134.412531 
L 457.337507 158.2119 
L 458.320752 147.674155 
L 459.298564 125.116069 
L 460.271004 121.548898 
L 461.23813 119.033235 
L 462.2 122.482733 
L 463.156671 128.909385 
L 464.108198 144.21835 
L 465.054637 157.399297 
L 465.996041 162.569473 
L 466.932465 169.964827 
L 467.863959 198.565377 
L 468.790577 170.703846 
L 469.712369 156.622871 
L 470.629385 138.658138 
L 471.541673 141.180961 
L 472.449284 134.680162 
L 473.352263 140.428066 
L 474.250659 173.750881 
L 475.144518 154.104786 
L 476.033885 137.679941 
L 476.918805 130.18501 
L 477.799322 130.093684 
L 478.67548 135.81215 
L 479.547322 157.985481 
L 480.414891 229.753216 
L 481.278227 162.512607 
L 482.137373 133.117443 
L 482.992368 139.897117 
L 483.843252 125.861144 
L 484.690065 127.319869 
L 486.371633 138.383763 
L 487.206463 139.569898 
L 488.037373 161.928637 
L 488.864401 194.366778 
L 489.687582 148.999186 
L 490.506952 128.043374 
L 491.322546 124.621006 
L 492.134399 122.264842 
L 492.942545 128.270987 
L 493.747017 136.322278 
L 494.54785 171.109852 
L 495.345074 165.304849 
L 496.138724 145.004044 
L 496.928831 152.213753 
L 497.715426 130.481041 
L 498.498541 133.080378 
L 499.278206 146.355655 
L 500.054451 135.232061 
L 500.827306 136.506996 
L 501.596801 139.763237 
L 502.362966 163.087001 
L 503.125827 169.087298 
L 503.885415 134.183371 
L 504.641756 127.312 
L 505.394879 124.662843 
L 506.144811 129.827293 
L 506.891578 133.959122 
L 507.635208 155.937699 
L 508.375726 286.515627 
L 509.113159 157.488994 
L 509.847532 144.076252 
L 510.57887 133.942619 
L 511.307199 134.99767 
L 512.032543 140.920953 
L 512.754926 139.629722 
L 513.474372 149.136957 
L 514.190906 152.465284 
L 514.904551 249.899231 
L 515.615329 156.666082 
L 516.323265 131.777781 
L 517.02838 127.612331 
L 517.730697 120.368999 
L 518.430237 120.241404 
L 519.127024 122.715908 
L 519.821079 137.276044 
L 520.512422 160.49134 
L 521.201075 167.866996 
L 521.887059 152.745416 
L 522.570394 130.615013 
L 523.251101 123.696081 
L 523.9292 121.649108 
L 524.604711 128.486628 
L 525.277653 126.026341 
L 525.948046 129.647001 
L 526.61591 142.173281 
L 527.281263 181.541251 
L 527.944124 159.30759 
L 528.604511 140.901355 
L 529.917939 127.283083 
L 530.571016 127.283989 
L 531.221692 129.681228 
L 531.869984 147.095874 
L 532.51591 193.24014 
L 533.159488 150.821096 
L 533.800734 139.961331 
L 534.439664 137.503104 
L 535.076297 131.1039 
L 535.710647 134.833699 
L 536.342732 133.012303 
L 536.972568 146.526245 
L 537.60017 177.453752 
L 538.225554 172.42592 
L 538.848737 145.703693 
L 540.088557 131.399712 
L 541.319753 122.166101 
L 541.932153 123.361925 
L 542.542442 135.432775 
L 543.150634 141.805913 
L 543.756743 160.733297 
L 545.562714 125.510752 
L 546.160632 128.317301 
L 546.756537 125.709195 
L 547.350442 129.16021 
L 547.942361 134.040476 
L 548.532307 157.627088 
L 549.120293 155.218202 
L 549.706332 171.732696 
L 550.290437 155.214859 
L 551.452895 140.681207 
L 552.031274 138.633846 
L 553.182391 146.908131 
L 554.326069 216.345175 
L 554.895149 144.990624 
L 555.462404 128.452035 
L 556.59149 135.926512 
L 557.153344 145.621766 
L 557.713419 148.457096 
L 558.271727 174.55202 
L 558.82828 154.641971 
L 559.383088 144.501991 
L 559.936162 137.886404 
L 560.487513 129.00544 
L 561.037152 127.163256 
L 561.58509 127.624165 
L 562.131336 136.092909 
L 562.675901 154.873978 
L 563.218796 159.180872 
L 563.760031 156.657504 
L 564.299616 147.546561 
L 564.83756 136.128969 
L 565.373875 135.188566 
L 565.908569 132.011119 
L 566.441652 139.923099 
L 566.973135 151.104517 
L 567.503027 180.953738 
L 568.031336 271.374653 
L 569.083248 165.699077 
L 570.128945 154.962517 
L 570.649485 146.958976 
L 571.168499 146.724053 
L 571.685995 143.526191 
L 572.201983 256.061398 
L 573.229467 157.911399 
L 573.74098 147.70431 
L 574.25102 131.579575 
L 574.759594 133.954442 
L 575.266711 127.508255 
L 576.276606 157.996336 
L 576.7794 193.69319 
L 577.280771 146.202929 
L 577.780725 140.375565 
L 578.279271 127.872047 
L 578.776416 131.516598 
L 579.272169 130.187054 
L 579.766537 137.690049 
L 580.259528 149.220125 
L 580.751149 190.807171 
L 581.241409 173.53422 
L 581.730314 162.353079 
L 582.217873 143.935032 
L 582.704092 132.655322 
L 583.188979 131.537747 
L 583.672541 136.696497 
L 584.154785 155.485582 
L 584.635719 151.335779 
L 585.11535 170.460334 
L 585.593684 158.368062 
L 586.070729 140.818132 
L 586.546492 140.445913 
L 587.020979 136.103454 
L 587.494198 145.373738 
L 587.966154 139.877325 
L 588.436856 157.819797 
L 588.906309 153.93573 
L 589.37452 169.62044 
L 589.841495 168.456515 
L 590.307242 142.390149 
L 590.771766 142.070647 
L 591.235074 132.60092 
L 591.697173 131.328414 
L 592.158068 133.53534 
L 592.617766 144.946156 
L 593.076273 168.943076 
L 593.533595 225.633806 
L 593.989739 145.983972 
L 594.44471 148.897871 
L 594.898514 139.436457 
L 595.351158 137.515592 
L 595.802647 137.752164 
L 596.252987 141.856351 
L 596.702184 142.893422 
L 597.150244 154.771406 
L 597.597173 223.96418 
L 598.042976 148.583215 
L 598.931227 122.266175 
L 599.373686 129.097355 
L 599.815042 130.164846 
L 600.2553 126.869922 
L 600.694465 146.968018 
L 601.132544 198.076277 
L 601.569541 145.098027 
L 602.005461 133.398426 
L 602.44031 141.220288 
L 602.874094 127.541127 
L 603.306817 130.665828 
L 603.738485 139.743567 
L 604.169102 142.141858 
L 605.027206 203.971403 
L 605.88117 137.310783 
L 606.306611 140.503774 
L 606.731033 135.705487 
L 607.154439 135.119199 
L 607.576834 138.774103 
L 608.418613 167.590238 
L 608.838005 164.111903 
L 609.256406 174.067936 
L 609.673821 146.721988 
L 610.090253 138.982728 
L 610.505708 145.134786 
L 610.92019 145.67232 
L 611.333703 139.77697 
L 611.746252 161.78482 
L 612.157842 157.718535 
L 612.568477 173.3506 
L 612.978162 150.680019 
L 613.3869 140.457885 
L 613.794697 127.312165 
L 614.201556 129.173486 
L 614.607482 126.865754 
L 615.012479 139.735434 
L 615.416551 156.242118 
L 615.819703 160.378678 
L 616.221939 157.48451 
L 616.623262 133.275151 
L 617.023678 137.934714 
L 617.42319 135.275715 
L 617.821801 141.581459 
L 618.219518 133.245412 
L 618.616342 142.031211 
L 619.012279 158.442706 
L 619.407332 288.506138 
L 619.801505 152.140827 
L 620.194802 150.840958 
L 620.587227 138.810197 
L 620.978784 141.189531 
L 621.369476 138.919012 
L 621.759308 164.240852 
L 622.148283 206.647278 
L 622.536405 208.507627 
L 622.923678 158.615727 
L 623.695691 135.92953 
L 624.080438 152.800428 
L 624.46435 142.203333 
L 624.847432 156.039939 
L 625.229686 159.171906 
L 625.611117 181.894673 
L 625.991727 186.864761 
L 626.37152 182.136205 
L 627.12867 133.847767 
L 627.506034 139.173474 
L 627.882595 129.413438 
L 628.258357 130.682073 
L 628.633322 152.170473 
L 629.007495 150.620752 
L 629.380878 174.514985 
L 629.753475 179.952819 
L 630.12529 145.964169 
L 630.496325 138.521757 
L 630.866584 138.769485 
L 631.236069 141.055697 
L 631.604785 149.67552 
L 631.972735 161.765313 
L 632.339921 162.19198 
L 632.706347 163.383728 
L 633.072016 151.185817 
L 633.43693 150.888739 
L 633.801094 138.327511 
L 634.164511 134.532563 
L 634.527182 142.846403 
L 634.889112 158.735281 
L 635.250303 159.247516 
L 635.610759 166.014735 
L 635.970481 144.827135 
L 636.329475 133.907673 
L 636.687741 128.12282 
L 637.045284 131.73791 
L 637.045284 131.73791 
" clip-path="url(#pa3d09df78a)" style="fill: none; stroke: #00ff00; stroke-width: 1.1; stroke-linecap: square"/>
   </g>
   <g id="line2d_68">
    <path d="M -1 123.687475 
L 64.476217 124.140839 
L 131.639663 124.817615 
L 184.868222 125.569588 
L 232.88655 126.471956 
L 273.42758 127.449522 
L 310.9585 128.577481 
L 343.789175 129.780639 
L 374.646869 131.134191 
L 402.265805 132.56294 
L 428.487299 134.142084 
L 452.337637 135.796425 
L 475.144518 137.601161 
L 496.138724 139.481094 
L 516.323265 141.511422 
L 535.076297 143.616947 
L 553.182391 145.872867 
L 570.128945 148.203984 
L 586.546492 150.685496 
L 602.005461 153.242205 
L 617.023678 155.949309 
L 631.604785 158.806807 
L 637.045284 159.934767 
L 637.045284 159.934767 
" clip-path="url(#pa3d09df78a)" style="fill: none; stroke: #000000; stroke-width: 2; stroke-linecap: square"/>
   </g>
   <g id="patch_3">
    <path d="M 68.957054 376.648 
L 68.957054 16.416 
" style="fill: none; stroke: #000000; stroke-width: 0.8; stroke-linejoin: miter; stroke-linecap: square"/>
   </g>
   <g id="patch_4">
    <path d="M 637.2 376.648 
L 637.2 16.416 
" style="fill: none; stroke: #000000; stroke-width: 0.8; stroke-linejoin: miter; stroke-linecap: square"/>
   </g>
   <g id="patch_5">
    <path d="M 68.957054 376.648 
L 637.2 376.648 
" style="fill: none; stroke: #000000; stroke-width: 0.8; stroke-linejoin: miter; stroke-linecap: square"/>
   </g>
   <g id="patch_6">
    <path d="M 68.957054 16.416 
L 637.2 16.416 
" style="fill: none; stroke: #000000; stroke-width: 0.8; stroke-linejoin: miter; stroke-linecap: square"/>
   </g>
   <g id="legend_1">
    <g id="patch_7">
     <path d="M 319.6 78.781 
L 626 78.781 
Q 629.2 78.781 629.2 75.581 
L 629.2 27.616 
Q 629.2 24.416 626 24.416 
L 319.6 24.416 
Q 316.4 24.416 316.4 27.616 
L 316.4 75.581 
Q 316.4 78.781 319.6 78.781 
z
" style="fill: #ffffff; opacity: 0.8; stroke: #cccccc; stroke-linejoin: miter"/>
    </g>
    <g id="line2d_69">
     <path d="M 322.8 37.3735 
L 338.8 37.3735 
L 354.8 37.3735 
" style="fill: none; stroke: #00ff00; stroke-width: 1.1; stroke-linecap: square"/>
    </g>
    <g id="text_12">
     <!-- Hexatic phase -->
     <g transform="translate(367.6 42.9735) scale(0.16 -0.16)">
      <defs>
       <path id="DejaVuSans-48" d="M 628 4666 
L 1259 4666 
L 1259 2753 
L 3553 2753 
L 3553 4666 
L 4184 4666 
L 4184 0 
L 3553 0 
L 3553 2222 
L 1259 2222 
L 1259 0 
L 628 0 
L 628 4666 
z
" transform="scale(0.015625)"/>
       <path id="DejaVuSans-65" d="M 3597 1894 
L 3597 1613 
L 953 1613 
Q 991 1019 1311 708 
Q 1631 397 2203 397 
Q 2534 397 2845 478 
Q 3156 559 3463 722 
L 3463 178 
Q 3153 47 2828 -22 
Q 2503 -91 2169 -91 
Q 1331 -91 842 396 
Q 353 884 353 1716 
Q 353 2575 817 3079 
Q 1281 3584 2069 3584 
Q 2775 3584 3186 3129 
Q 3597 2675 3597 1894 
z
M 3022 2063 
Q 3016 2534 2758 2815 
Q 2500 3097 2075 3097 
Q 1594 3097 1305 2825 
Q 1016 2553 972 2059 
L 3022 2063 
z
" transform="scale(0.015625)"/>
       <path id="DejaVuSans-78" d="M 3513 3500 
L 2247 1797 
L 3578 0 
L 2900 0 
L 1881 1375 
L 863 0 
L 184 0 
L 1544 1831 
L 300 3500 
L 978 3500 
L 1906 2253 
L 2834 3500 
L 3513 3500 
z
" transform="scale(0.015625)"/>
       <path id="DejaVuSans-61" d="M 2194 1759 
Q 1497 1759 1228 1600 
Q 959 1441 959 1056 
Q 959 750 1161 570 
Q 1363 391 1709 391 
Q 2188 391 2477 730 
Q 2766 1069 2766 1631 
L 2766 1759 
L 2194 1759 
z
M 3341 1997 
L 3341 0 
L 2766 0 
L 2766 531 
Q 2569 213 2275 61 
Q 1981 -91 1556 -91 
Q 1019 -91 701 211 
Q 384 513 384 1019 
Q 384 1609 779 1909 
Q 1175 2209 1959 2209 
L 2766 2209 
L 2766 2266 
Q 2766 2663 2505 2880 
Q 2244 3097 1772 3097 
Q 1472 3097 1187 3025 
Q 903 2953 641 2809 
L 641 3341 
Q 956 3463 1253 3523 
Q 1550 3584 1831 3584 
Q 2591 3584 2966 3190 
Q 3341 2797 3341 1997 
z
" transform="scale(0.015625)"/>
       <path id="DejaVuSans-74" d="M 1172 4494 
L 1172 3500 
L 2356 3500 
L 2356 3053 
L 1172 3053 
L 1172 1153 
Q 1172 725 1289 603 
Q 1406 481 1766 481 
L 2356 481 
L 2356 0 
L 1766 0 
Q 1100 0 847 248 
Q 594 497 594 1153 
L 594 3053 
L 172 3053 
L 172 3500 
L 594 3500 
L 594 4494 
L 1172 4494 
z
" transform="scale(0.015625)"/>
       <path id="DejaVuSans-69" d="M 603 3500 
L 1178 3500 
L 1178 0 
L 603 0 
L 603 3500 
z
M 603 4863 
L 1178 4863 
L 1178 4134 
L 603 4134 
L 603 4863 
z
" transform="scale(0.015625)"/>
       <path id="DejaVuSans-63" d="M 3122 3366 
L 3122 2828 
Q 2878 2963 2633 3030 
Q 2388 3097 2138 3097 
Q 1578 3097 1268 2742 
Q 959 2388 959 1747 
Q 959 1106 1268 751 
Q 1578 397 2138 397 
Q 2388 397 2633 464 
Q 2878 531 3122 666 
L 3122 134 
Q 2881 22 2623 -34 
Q 2366 -91 2075 -91 
Q 1284 -91 818 406 
Q 353 903 353 1747 
Q 353 2603 823 3093 
Q 1294 3584 2113 3584 
Q 2378 3584 2631 3529 
Q 2884 3475 3122 3366 
z
" transform="scale(0.015625)"/>
       <path id="DejaVuSans-20" transform="scale(0.015625)"/>
       <path id="DejaVuSans-70" d="M 1159 525 
L 1159 -1331 
L 581 -1331 
L 581 3500 
L 1159 3500 
L 1159 2969 
Q 1341 3281 1617 3432 
Q 1894 3584 2278 3584 
Q 2916 3584 3314 3078 
Q 3713 2572 3713 1747 
Q 3713 922 3314 415 
Q 2916 -91 2278 -91 
Q 1894 -91 1617 61 
Q 1341 213 1159 525 
z
M 3116 1747 
Q 3116 2381 2855 2742 
Q 2594 3103 2138 3103 
Q 1681 3103 1420 2742 
Q 1159 2381 1159 1747 
Q 1159 1113 1420 752 
Q 1681 391 2138 391 
Q 2594 391 2855 752 
Q 3116 1113 3116 1747 
z
" transform="scale(0.015625)"/>
       <path id="DejaVuSans-68" d="M 3513 2113 
L 3513 0 
L 2938 0 
L 2938 2094 
Q 2938 2591 2744 2837 
Q 2550 3084 2163 3084 
Q 1697 3084 1428 2787 
Q 1159 2491 1159 1978 
L 1159 0 
L 581 0 
L 581 4863 
L 1159 4863 
L 1159 2956 
Q 1366 3272 1645 3428 
Q 1925 3584 2291 3584 
Q 2894 3584 3203 3211 
Q 3513 2838 3513 2113 
z
" transform="scale(0.015625)"/>
       <path id="DejaVuSans-73" d="M 2834 3397 
L 2834 2853 
Q 2591 2978 2328 3040 
Q 2066 3103 1784 3103 
Q 1356 3103 1142 2972 
Q 928 2841 928 2578 
Q 928 2378 1081 2264 
Q 1234 2150 1697 2047 
L 1894 2003 
Q 2506 1872 2764 1633 
Q 3022 1394 3022 966 
Q 3022 478 2636 193 
Q 2250 -91 1575 -91 
Q 1294 -91 989 -36 
Q 684 19 347 128 
L 347 722 
Q 666 556 975 473 
Q 1284 391 1588 391 
Q 1994 391 2212 530 
Q 2431 669 2431 922 
Q 2431 1156 2273 1281 
Q 2116 1406 1581 1522 
L 1381 1569 
Q 847 1681 609 1914 
Q 372 2147 372 2553 
Q 372 3047 722 3315 
Q 1072 3584 1716 3584 
Q 2034 3584 2315 3537 
Q 2597 3491 2834 3397 
z
" transform="scale(0.015625)"/>
      </defs>
      <use xlink:href="#DejaVuSans-48"/>
      <use xlink:href="#DejaVuSans-65" x="75.195312"/>
      <use xlink:href="#DejaVuSans-78" x="134.96875"/>
      <use xlink:href="#DejaVuSans-61" x="194.148438"/>
      <use xlink:href="#DejaVuSans-74" x="255.427734"/>
      <use xlink:href="#DejaVuSans-69" x="294.636719"/>
      <use xlink:href="#DejaVuSans-63" x="322.419922"/>
      <use xlink:href="#DejaVuSans-20" x="377.400391"/>
      <use xlink:href="#DejaVuSans-70" x="409.1875"/>
      <use xlink:href="#DejaVuSans-68" x="472.664062"/>
      <use xlink:href="#DejaVuSans-61" x="536.042969"/>
      <use xlink:href="#DejaVuSans-73" x="597.322266"/>
      <use xlink:href="#DejaVuSans-65" x="649.421875"/>
     </g>
    </g>
    <g id="line2d_70">
     <path d="M 322.8 63.421 
L 338.8 63.421 
L 354.8 63.421 
" style="fill: none; stroke: #000000; stroke-width: 2; stroke-linecap: square"/>
    </g>
    <g id="text_13">
     <!-- Fitted curve $e^{-R/\xi_{\vec{G}}},\,\, \xi_{\vec{G}} = $17.34$\,a$ -->
     <g transform="translate(367.6 69.021) scale(0.16 -0.16)">
      <defs>
       <path id="DejaVuSans-46" d="M 628 4666 
L 3309 4666 
L 3309 4134 
L 1259 4134 
L 1259 2759 
L 3109 2759 
L 3109 2228 
L 1259 2228 
L 1259 0 
L 628 0 
L 628 4666 
z
" transform="scale(0.015625)"/>
       <path id="DejaVuSans-64" d="M 2906 2969 
L 2906 4863 
L 3481 4863 
L 3481 0 
L 2906 0 
L 2906 525 
Q 2725 213 2448 61 
Q 2172 -91 1784 -91 
Q 1150 -91 751 415 
Q 353 922 353 1747 
Q 353 2572 751 3078 
Q 1150 3584 1784 3584 
Q 2172 3584 2448 3432 
Q 2725 3281 2906 2969 
z
M 947 1747 
Q 947 1113 1208 752 
Q 1469 391 1925 391 
Q 2381 391 2643 752 
Q 2906 1113 2906 1747 
Q 2906 2381 2643 2742 
Q 2381 3103 1925 3103 
Q 1469 3103 1208 2742 
Q 947 2381 947 1747 
z
" transform="scale(0.015625)"/>
       <path id="DejaVuSans-75" d="M 544 1381 
L 544 3500 
L 1119 3500 
L 1119 1403 
Q 1119 906 1312 657 
Q 1506 409 1894 409 
Q 2359 409 2629 706 
Q 2900 1003 2900 1516 
L 2900 3500 
L 3475 3500 
L 3475 0 
L 2900 0 
L 2900 538 
Q 2691 219 2414 64 
Q 2138 -91 1772 -91 
Q 1169 -91 856 284 
Q 544 659 544 1381 
z
M 1991 3584 
L 1991 3584 
z
" transform="scale(0.015625)"/>
       <path id="DejaVuSans-72" d="M 2631 2963 
Q 2534 3019 2420 3045 
Q 2306 3072 2169 3072 
Q 1681 3072 1420 2755 
Q 1159 2438 1159 1844 
L 1159 0 
L 581 0 
L 581 3500 
L 1159 3500 
L 1159 2956 
Q 1341 3275 1631 3429 
Q 1922 3584 2338 3584 
Q 2397 3584 2469 3576 
Q 2541 3569 2628 3553 
L 2631 2963 
z
" transform="scale(0.015625)"/>
       <path id="DejaVuSans-76" d="M 191 3500 
L 800 3500 
L 1894 563 
L 2988 3500 
L 3597 3500 
L 2284 0 
L 1503 0 
L 191 3500 
z
" transform="scale(0.015625)"/>
       <path id="DejaVuSans-Oblique-65" d="M 3078 2063 
Q 3088 2113 3092 2166 
Q 3097 2219 3097 2272 
Q 3097 2653 2873 2875 
Q 2650 3097 2266 3097 
Q 1838 3097 1509 2826 
Q 1181 2556 1013 2059 
L 3078 2063 
z
M 3578 1613 
L 903 1613 
Q 884 1494 878 1425 
Q 872 1356 872 1306 
Q 872 872 1139 634 
Q 1406 397 1894 397 
Q 2269 397 2603 481 
Q 2938 566 3225 728 
L 3116 159 
Q 2806 34 2476 -28 
Q 2147 -91 1806 -91 
Q 1078 -91 686 257 
Q 294 606 294 1247 
Q 294 1794 489 2264 
Q 684 2734 1063 3103 
Q 1306 3334 1642 3459 
Q 1978 3584 2356 3584 
Q 2950 3584 3301 3228 
Q 3653 2872 3653 2272 
Q 3653 2128 3634 1964 
Q 3616 1800 3578 1613 
z
" transform="scale(0.015625)"/>
       <path id="DejaVuSans-Oblique-52" d="M 1613 4147 
L 1294 2491 
L 2106 2491 
Q 2584 2491 2879 2755 
Q 3175 3019 3175 3444 
Q 3175 3784 2976 3965 
Q 2778 4147 2406 4147 
L 1613 4147 
z
M 2772 2241 
Q 2972 2194 3105 2009 
Q 3238 1825 3413 1275 
L 3809 0 
L 3144 0 
L 2778 1197 
Q 2638 1659 2453 1815 
Q 2269 1972 1888 1972 
L 1191 1972 
L 806 0 
L 172 0 
L 1081 4666 
L 2503 4666 
Q 3150 4666 3495 4373 
Q 3841 4081 3841 3531 
Q 3841 3044 3547 2687 
Q 3253 2331 2772 2241 
z
" transform="scale(0.015625)"/>
       <path id="DejaVuSans-Oblique-3be" d="M 2016 397 
Q 2428 394 2628 159 
Q 2844 -88 2772 -463 
Q 2700 -822 2422 -1072 
Q 2119 -1344 1609 -1344 
Q 1656 -1109 1700 -872 
Q 1913 -888 2072 -750 
Q 2194 -641 2216 -525 
Q 2247 -359 2175 -222 
Q 2100 -91 1922 -91 
Q -25 -91 241 1275 
Q 422 2213 1516 2488 
Q 663 2600 822 3413 
Q 941 4028 1678 4284 
L 1028 4284 
L 1141 4863 
L 3606 4863 
L 3494 4284 
Q 1528 4284 1350 3375 
Q 1234 2778 2881 2750 
L 2778 2219 
Q 1009 2288 819 1275 
Q 659 428 2016 397 
z
" transform="scale(0.015625)"/>
       <path id="DejaVuSans-2c" d="M 750 794 
L 1409 794 
L 1409 256 
L 897 -744 
L 494 -744 
L 750 256 
L 750 794 
z
" transform="scale(0.015625)"/>
       <path id="DejaVuSans-3d" d="M 678 2906 
L 4684 2906 
L 4684 2381 
L 678 2381 
L 678 2906 
z
M 678 1631 
L 4684 1631 
L 4684 1100 
L 678 1100 
L 678 1631 
z
" transform="scale(0.015625)"/>
       <path id="DejaVuSans-37" d="M 525 4666 
L 3525 4666 
L 3525 4397 
L 1831 0 
L 1172 0 
L 2766 4134 
L 525 4134 
L 525 4666 
z
" transform="scale(0.015625)"/>
       <path id="DejaVuSans-2e" d="M 684 794 
L 1344 794 
L 1344 0 
L 684 0 
L 684 794 
z
" transform="scale(0.015625)"/>
      </defs>
      <use xlink:href="#DejaVuSans-46" transform="translate(0 0.529687)"/>
      <use xlink:href="#DejaVuSans-69" transform="translate(57.519531 0.529687)"/>
      <use xlink:href="#DejaVuSans-74" transform="translate(85.302734 0.529687)"/>
      <use xlink:href="#DejaVuSans-74" transform="translate(124.511719 0.529687)"/>
      <use xlink:href="#DejaVuSans-65" transform="translate(163.720703 0.529687)"/>
      <use xlink:href="#DejaVuSans-64" transform="translate(225.244141 0.529687)"/>
      <use xlink:href="#DejaVuSans-20" transform="translate(288.720703 0.529687)"/>
      <use xlink:href="#DejaVuSans-63" transform="translate(320.507812 0.529687)"/>
      <use xlink:href="#DejaVuSans-75" transform="translate(375.488281 0.529687)"/>
      <use xlink:href="#DejaVuSans-72" transform="translate(438.867188 0.529687)"/>
      <use xlink:href="#DejaVuSans-76" transform="translate(479.980469 0.529687)"/>
      <use xlink:href="#DejaVuSans-65" transform="translate(539.160156 0.529687)"/>
      <use xlink:href="#DejaVuSans-20" transform="translate(600.683594 0.529687)"/>
      <use xlink:href="#DejaVuSans-Oblique-65" transform="translate(632.470703 0.529687)"/>
      <use xlink:href="#DejaVuSans-2212" transform="translate(698.644036 38.810937) scale(0.7)"/>
      <use xlink:href="#DejaVuSans-Oblique-52" transform="translate(757.29638 38.810937) scale(0.7)"/>
      <use xlink:href="#DejaVuSans-2f" transform="translate(805.934076 38.810937) scale(0.7)"/>
      <use xlink:href="#DejaVuSans-Oblique-3be" transform="translate(829.51806 38.810937) scale(0.7)"/>
      <use xlink:href="#DejaVuSans-20d7" transform="translate(904.090692 42.396875) scale(0.49)"/>
      <use xlink:href="#DejaVuSans-Oblique-47" transform="translate(868.551263 27.326562) scale(0.49)"/>
      <use xlink:href="#DejaVuSans-2c" transform="translate(911.169915 0.529687)"/>
      <use xlink:href="#DejaVuSans-Oblique-3be" transform="translate(994.910799 0.529687)"/>
      <use xlink:href="#DejaVuSans-20d7" transform="translate(1102.155184 5.654687) scale(0.7)"/>
      <use xlink:href="#DejaVuSans-Oblique-47" transform="translate(1050.672518 -15.876563) scale(0.7)"/>
      <use xlink:href="#DejaVuSans-3d" transform="translate(1127.132479 0.529687)"/>
      <use xlink:href="#DejaVuSans-31" transform="translate(1230.403963 0.529687)"/>
      <use xlink:href="#DejaVuSans-37" transform="translate(1294.02701 0.529687)"/>
      <use xlink:href="#DejaVuSans-2e" transform="translate(1357.650057 0.529687)"/>
      <use xlink:href="#DejaVuSans-33" transform="translate(1389.437166 0.529687)"/>
      <use xlink:href="#DejaVuSans-34" transform="translate(1453.060213 0.529687)"/>
      <use xlink:href="#DejaVuSans-Oblique-61" transform="translate(1532.918936 0.529687)"/>
     </g>
    </g>
   </g>
  </g>
 </g>
 <defs>
  <clipPath id="pa3d09df78a">
   <rect x="68.957054" y="16.416" width="568.242946" height="360.232"/>
  </clipPath>
 </defs>
</svg>
